# xmcd CD database file
#
# Track frame offsets:
#	183
#	11548
#	34190
#	73170
#	98415
#	110638
#	138178
#	151563
#
# Disc length: 2192 seconds
#
# Revision: 0
# Processed by: cddbd v1.4b42PL1 Copyright (c) Steve Scherf et al.
# Submitted via: Feurio! 1.61 - http://www.feurio.com
#
DISCID=59088e08
DTITLE=The Blues Project - The Best Of The Blues Project
DYEAR=1900
DGENRE=
TTITLE0=I Want To Be Your Driver
TTITLE1=Steve's Song
TTITLE2=Wake Me, Shake Me
TTITLE3=I Can't Keep From Crying Sometimes
TTITLE4=Cheryl's Going Home
TTITLE5=Flute Thing
TTITLE6=Violets Of Dawn
TTITLE7=No Time Like The Right Time
EXTD=AAD -Polydor
EXTT0=
EXTT1=
EXTT2=
EXTT3=
EXTT4=
EXTT5=
EXTT6=
EXTT7=
PLAYORDER=
